Coordinates
version=1
nRows=49
nColumns=12
inDegrees=yes

Units are S.I. units (second, meters, Newtons, ...)
Angles are in degrees

endheader
time	SC_y	SC_z	SC_x	AC_y	AC_z	AC_x	GH_y	GH_z	GH_yy	EL_x	PS_y
       0.0              -36.03          10.02          33.41          33.71         -8.635          4.759         -124.4          12.52          113.1          63.62          58.92
   0.01946              -36.03          10.02          33.41          33.71         -8.633          4.756         -124.4          12.52          113.1          63.63          58.92
   0.03892              -36.03          10.02          33.41          33.72         -8.631          4.754         -124.4          12.53          113.1          63.64          58.92
   0.05838              -36.03          10.02          33.41          33.72         -8.628          4.751         -124.4          12.54          113.1          63.65          58.93
   0.07784              -36.03          10.02          33.41          33.73         -8.626          4.748         -124.4          12.55          113.0          63.66          58.93
    0.0973              -36.03          10.02          33.41          33.73         -8.624          4.745         -124.4          12.55          113.0          63.67          58.93
    0.1168              -36.03          10.01          33.41          33.74         -8.621          4.741         -124.4          12.56          113.0          63.69          58.93
    0.1362              -36.03          10.01          33.41          33.75         -8.618          4.738         -124.4          12.57          113.0           63.7          58.93
    0.1557              -36.03          10.01          33.41          33.75         -8.615          4.734         -124.4          12.58          113.0          63.71          58.93
    0.1751              -36.04          10.01          33.41          33.76         -8.611           4.73         -124.4          12.59          113.0          63.73          58.93
    0.1946              -36.04          10.01          33.41          33.77         -8.608          4.725         -124.4          12.61          112.9          63.74          58.93
    0.2141              -36.04          10.01          33.41          33.78         -8.604          4.721         -124.4          12.62          112.9          63.76          58.94
    0.2335              -36.04          10.01          33.41          33.79           -8.6          4.716         -124.4          12.63          112.9          63.78          58.94
     0.253              -36.04          10.01          33.41           33.8         -8.595           4.71         -124.4          12.65          112.9           63.8          58.94
    0.2724              -36.04           10.0          33.41          33.81          -8.59          4.704         -124.5          12.66          112.8          63.82          58.94
    0.2919              -36.04           10.0          33.41          33.82         -8.585          4.698         -124.5          12.68          112.8          63.84          58.94
    0.3114              -36.04           10.0          33.41          33.83         -8.579          4.691         -124.5           12.7          112.8          63.87          58.95
    0.3308              -36.04          9.999          33.41          33.85         -8.573          4.683         -124.5          12.72          112.7           63.9          58.95
    0.3503              -36.04          9.997          33.41          33.86         -8.566          4.674         -124.5          12.74          112.7          63.93          58.95
    0.3697              -36.04          9.994           33.4          33.88         -8.559          4.665         -124.5          12.76          112.7          63.96          58.96
    0.3892              -36.04          9.992           33.4           33.9         -8.551          4.655         -124.5          12.79          112.6           64.0          58.96
    0.4087              -36.04          9.989           33.4          33.92         -8.541          4.644         -124.5          12.82          112.6          64.04          58.96
    0.4281              -36.05          9.985           33.4          33.94         -8.531          4.632         -124.5          12.85          112.5          64.08          58.97
    0.4476              -36.05          9.982           33.4          33.96          -8.52          4.618         -124.5          12.89          112.4          64.13          58.97
     0.467              -36.05          9.977           33.4          33.99         -8.508          4.603         -124.5          12.93          112.4          64.19          58.98
    0.4865              -36.05          9.973           33.4          34.02         -8.494          4.586         -124.5          12.97          112.3          64.25          58.98
     0.506              -36.05          9.968           33.4          34.06         -8.479          4.567         -124.5          13.02          112.2          64.31          58.99
    0.5254              -36.05          9.962           33.4          34.09         -8.462          4.546         -124.5          13.08          112.1          64.39           59.0
    0.5449              -36.06          9.956          33.39          34.14         -8.442          4.522         -124.6          13.14          112.0          64.48           59.0
    0.5643              -36.06          9.948          33.39          34.19          -8.42          4.495         -124.6          13.21          111.9          64.58          59.01
    0.5838              -36.06           9.94          33.39          34.24         -8.395          4.463         -124.6          13.29          111.7          64.69          59.02
    0.6033              -36.07           9.93          33.39          34.31         -8.365          4.428         -124.6          13.38          111.5          64.82          59.04
    0.6227              -36.07          9.919          33.38          34.38         -8.332          4.386         -124.6          13.49          111.4          64.97          59.05
    0.6422              -36.08          9.906          33.38          34.47         -8.293          4.339         -124.7          13.62          111.1          65.14          59.07
    0.6616              -36.08          9.891          33.38          34.57         -8.247          4.282         -124.7          13.76          110.9          65.34          59.09
    0.6811              -36.09          9.873          33.37          34.69         -8.193          4.216         -124.8          13.94          110.6          65.58          59.11
    0.7006               -36.1          9.852          33.37          34.83         -8.129          4.138         -124.8          14.14          110.2          65.86          59.14
      0.72              -36.11          9.826          33.36          35.01         -8.053          4.044         -124.9          14.39          109.8           66.2          59.17
    0.7395              -36.12          9.795          33.35          35.21          -7.96           3.93         -124.9          14.69          109.2          66.61          59.21
    0.7589              -36.14          9.758          33.34          35.46         -7.847           3.79         -125.0          15.05          108.6          67.11          59.25
    0.7784              -36.15          9.711          33.33          35.78         -7.707          3.619         -125.1           15.5          107.8          67.73          59.31
    0.7979              -36.18          9.653          33.31          36.17         -7.532          3.404         -125.3          16.06          106.8          68.51          59.39
    0.8173              -36.21           9.58          33.29          36.65         -7.313          3.134         -125.4          16.77          105.5          69.48          59.48
    0.8368              -36.24          9.488          33.26          37.28         -7.033          2.791         -125.6          17.67          103.9          70.71           59.6
    0.8562              -36.29          9.369          33.23          38.07         -6.676          2.352         -125.9          18.82          101.8           72.3          59.75
    0.8757              -36.35          9.216          33.19           39.1         -6.217          1.788         -126.2          20.29          99.22          74.33          59.94
    0.8952              -36.43          9.022          33.13           40.4         -5.631          1.069         -126.7          22.18          95.85          76.92          60.18
    0.9146              -36.53          8.777          33.07          42.04         -4.894         0.1633         -127.3          24.55          91.62          80.18          60.49
    0.9341              -36.64          8.479          32.98          44.04         -3.996        -0.9398         -127.9          27.43          86.47          84.16          60.87
